<svg xmlns="http://www.w3.org/2000/svg" xmlns:xlink="http://www.w3.org/1999/xlink" version="1.1" data-diagram-type="SEQUENCE" style="width:620px;height:682px;background:#FFFFFF;" width="620px" height="682px" viewBox="0 0 620 682" zoomAndPan="magnify" preserveAspectRatio="none" contentStyleType="text/css"><?plantuml 1.2026.8?><defs/><g font-family="sans-serif" lengthAdjust="spacing"><g class="legend" data-source-line="90"><rect x="17" y="17" width="182.222" height="72.203" fill="none" style="stroke:#DADCE0;stroke-width:1;"/><text x="22" y="33.282" fill="#202124" font-size="10" font-weight="700" font-family="'Roboto, Segoe UI, sans-serif'"> </text><text x="25.481" y="33.282" fill="#202124" font-size="10" textLength="165.259" font-weight="700" font-family="'Roboto, Segoe UI, sans-serif'">Storage &amp; Messaging Legend</text><text x="190.74" y="33.282" fill="#202124" font-size="10" font-weight="700" font-family="'Roboto, Segoe UI, sans-serif'"> </text><rect x="22" y="35.641" width="172.222" height="11.641" fill="#1662C5" style="stroke:none;"/><text x="22" y="44.923" fill="#202124" font-size="10" font-family="'Roboto, Segoe UI, sans-serif'"> </text><text x="28.357" y="44.923" fill="#FFF" font-size="10" textLength="116.377" font-family="'Roboto, Segoe UI, sans-serif'">Database (PostgreSQL)</text><text x="157.449" y="44.923" fill="#202124" font-size="10" font-family="'Roboto, Segoe UI, sans-serif'"> </text><rect x="22" y="47.281" width="172.222" height="11.641" fill="#D97706" style="stroke:none;"/><text x="22" y="56.563" fill="#202124" font-size="10" font-family="'Roboto, Segoe UI, sans-serif'"> </text><text x="28.357" y="56.563" fill="#FFF" font-size="10" textLength="75.688" font-family="'Roboto, Segoe UI, sans-serif'">Cache (Valkey)</text><text x="139.012" y="56.563" fill="#202124" font-size="10" font-family="'Roboto, Segoe UI, sans-serif'"> </text><rect x="22" y="58.922" width="172.222" height="11.641" fill="#0D9488" style="stroke:none;"/><text x="22" y="68.204" fill="#202124" font-size="10" font-family="'Roboto, Segoe UI, sans-serif'"> </text><text x="28.357" y="68.204" fill="#FFF" font-size="10" textLength="123.784" font-family="'Roboto, Segoe UI, sans-serif'">Object Store (RustFS S3)</text><text x="155.32" y="68.204" fill="#202124" font-size="10" font-family="'Roboto, Segoe UI, sans-serif'"> </text><rect x="22" y="70.563" width="172.222" height="11.641" fill="#1250A2" style="stroke:none;"/><text x="22" y="79.845" fill="#202124" font-size="10" font-family="'Roboto, Segoe UI, sans-serif'"> </text><text x="28.357" y="79.845" fill="#FFF" font-size="10" textLength="126.763" font-family="'Roboto, Segoe UI, sans-serif'">Stream (NATS JetStream)</text><text x="161.478" y="79.845" fill="#202124" font-size="10" font-family="'Roboto, Segoe UI, sans-serif'"> </text><line x1="22" y1="24" x2="194.222" y2="24" style="stroke:#202124;stroke-width:1;"/><line x1="22" y1="35.641" x2="194.222" y2="35.641" style="stroke:#202124;stroke-width:1;"/><line x1="22" y1="47.281" x2="194.222" y2="47.281" style="stroke:#202124;stroke-width:1;"/><line x1="22" y1="58.922" x2="194.222" y2="58.922" style="stroke:#202124;stroke-width:1;"/><line x1="22" y1="70.563" x2="194.222" y2="70.563" style="stroke:#202124;stroke-width:1;"/><line x1="22" y1="82.203" x2="194.222" y2="82.203" style="stroke:#202124;stroke-width:1;"/><line x1="22" y1="24" x2="22" y2="82.203" style="stroke:#202124;stroke-width:1;"/><line x1="194.222" y1="24" x2="194.222" y2="82.203" style="stroke:#202124;stroke-width:1;"/></g><rect x="42.812" y="342.359" width="382.581" height="231.406" fill="none" style="stroke:#000;stroke-width:1.5;"/><g><title>Office Manager</title><rect x="55.312" y="181.172" width="8" height="416.594" fill="#000" fill-opacity="0"/><line x1="58.812" y1="181.172" x2="58.812" y2="597.766" style="stroke:#5F6368;stroke-width:1.5;stroke-dasharray:6,4;"/></g><g><title>little-trotter-invoice</title><rect x="217.257" y="181.172" width="8" height="416.594" fill="#000" fill-opacity="0"/><line x1="220.757" y1="181.172" x2="220.757" y2="597.766" style="stroke:#5F6368;stroke-width:1.5;stroke-dasharray:6,4;"/></g><g><title>PostgreSQL</title><rect x="405.892" y="181.172" width="8" height="416.594" fill="#000" fill-opacity="0"/><line x1="409.392" y1="181.172" x2="409.392" y2="597.766" style="stroke:#5F6368;stroke-width:1.5;stroke-dasharray:6,4;"/></g><g><title>little-trotter-job-worker</title><rect x="529.571" y="181.172" width="8" height="416.594" fill="#000" fill-opacity="0"/><line x1="533.071" y1="181.172" x2="533.071" y2="597.766" style="stroke:#5F6368;stroke-width:1.5;stroke-dasharray:6,4;"/></g><text x="10" y="178.342" fill="#FFF" font-size="12" textLength="91.623" font-family="'Roboto, Segoe UI, sans-serif'">Office Manager</text><ellipse cx="58.812" cy="115.703" rx="8" ry="8" fill="#5F6368" style="stroke:#4C4F53;stroke-width:0.5;"/><path d="M58.812,123.703 L58.812,150.703 M45.812,131.703 L71.812,131.703 M58.812,150.703 L45.812,165.703 M58.812,150.703 L71.812,165.703" style="stroke:#4C4F53;stroke-width:0.5;" fill="none"/><rect x="155.328" y="152.203" width="130.859" height="27.969" fill="#3C88EB" style="stroke:#2D66B0;stroke-width:0.5;"/><text x="162.328" y="170.342" fill="#FFF" font-size="12" textLength="116.859" font-family="'Roboto, Segoe UI, sans-serif'">little-trotter-invoice</text><text x="371.784" y="166.701" fill="#FFF" font-size="12" textLength="69.217" font-family="'Roboto, Segoe UI, sans-serif'">PostgreSQL</text><text x="378.633" y="178.813" fill="#FFF" font-size="10" textLength="55.518" font-family="'Roboto, Segoe UI, sans-serif'">[Database]</text><path d="M391.392,119.563 C391.392,109.563 409.392,109.563 409.392,109.563 C409.392,109.563 427.392,109.563 427.392,119.563 L427.392,145.563 C427.392,155.563 409.392,155.563 409.392,155.563 C409.392,155.563 391.392,155.563 391.392,145.563 L391.392,119.563" style="stroke:#1456AE;stroke-width:0.5;" fill="#1662C5"/><path d="M391.392,119.563 C391.392,129.563 409.392,129.563 409.392,129.563 C409.392,129.563 427.392,129.563 427.392,119.563" style="stroke:#1456AE;stroke-width:0.5;" fill="none"/><rect x="457" y="152.203" width="152.141" height="27.969" fill="#3C88EB" style="stroke:#2D66B0;stroke-width:0.5;"/><text x="464" y="170.342" fill="#FFF" font-size="12" textLength="138.141" font-family="'Roboto, Segoe UI, sans-serif'">little-trotter-job-worker</text><text x="10" y="608.904" fill="#FFF" font-size="12" textLength="91.623" font-family="'Roboto, Segoe UI, sans-serif'">Office Manager</text><ellipse cx="58.812" cy="620.234" rx="8" ry="8" fill="#5F6368" style="stroke:#4C4F53;stroke-width:0.5;"/><path d="M58.812,628.234 L58.812,655.234 M45.812,636.234 L71.812,636.234 M58.812,655.234 L45.812,670.234 M58.812,655.234 L71.812,670.234" style="stroke:#4C4F53;stroke-width:0.5;" fill="none"/><rect x="155.328" y="597.766" width="130.859" height="27.969" fill="#3C88EB" style="stroke:#2D66B0;stroke-width:0.5;"/><text x="162.328" y="615.904" fill="#FFF" font-size="12" textLength="116.859" font-family="'Roboto, Segoe UI, sans-serif'">little-trotter-invoice</text><text x="371.784" y="608.904" fill="#FFF" font-size="12" textLength="69.217" font-family="'Roboto, Segoe UI, sans-serif'">PostgreSQL</text><text x="378.633" y="621.017" fill="#FFF" font-size="10" textLength="55.518" font-family="'Roboto, Segoe UI, sans-serif'">[Database]</text><path d="M391.392,633.375 C391.392,623.375 409.392,623.375 409.392,623.375 C409.392,623.375 427.392,623.375 427.392,633.375 L427.392,659.375 C427.392,669.375 409.392,669.375 409.392,669.375 C409.392,669.375 391.392,669.375 391.392,659.375 L391.392,633.375" style="stroke:#1456AE;stroke-width:0.5;" fill="#1662C5"/><path d="M391.392,633.375 C391.392,643.375 409.392,643.375 409.392,643.375 C409.392,643.375 427.392,643.375 427.392,633.375" style="stroke:#1456AE;stroke-width:0.5;" fill="none"/><rect x="457" y="597.766" width="152.141" height="27.969" fill="#3C88EB" style="stroke:#2D66B0;stroke-width:0.5;"/><text x="464" y="615.904" fill="#FFF" font-size="12" textLength="138.141" font-family="'Roboto, Segoe UI, sans-serif'">little-trotter-job-worker</text><polygon points="208.757,203.977,218.757,207.977,208.757,211.977,212.757,207.977" fill="#5F6368" style="stroke:#5F6368;stroke-width:1;stroke-linejoin:miter;stroke-miterlimit:10;"/><line x1="58.812" y1="207.977" x2="214.757" y2="207.977" style="stroke:#5F6368;stroke-width:1;"/><text x="89.248" y="203.382" fill="#202124" font-size="11" textLength="27.452" font-family="'Roboto, Segoe UI, sans-serif'">open</text><text x="116.699" y="203.382" fill="#202124" font-size="11" font-family="'Roboto, Segoe UI, sans-serif'"> </text><text x="120.196" y="203.382" fill="#202124" font-size="11" textLength="16.769" font-family="'Roboto, Segoe UI, sans-serif'">job</text><text x="136.965" y="203.382" fill="#202124" font-size="11" font-family="'Roboto, Segoe UI, sans-serif'"> </text><text x="140.461" y="203.382" fill="#202124" font-size="11" textLength="49.86" font-family="'Roboto, Segoe UI, sans-serif'">overview</text><polygon points="397.392,230.781,407.392,234.781,397.392,238.781,401.392,234.781" fill="#5F6368" style="stroke:#5F6368;stroke-width:1;stroke-linejoin:miter;stroke-miterlimit:10;"/><line x1="220.757" y1="234.781" x2="403.392" y2="234.781" style="stroke:#5F6368;stroke-width:1;"/><text x="236.074" y="230.187" fill="#202124" font-size="11" textLength="31.754" font-family="'Roboto, Segoe UI, sans-serif'">query</text><text x="267.828" y="230.187" fill="#202124" font-size="11" font-family="'Roboto, Segoe UI, sans-serif'"> </text><text x="271.324" y="230.187" fill="#202124" font-size="11" textLength="20.233" font-family="'Roboto, Segoe UI, sans-serif'">day</text><text x="291.557" y="230.187" fill="#202124" font-size="11" font-family="'Roboto, Segoe UI, sans-serif'"> </text><text x="295.054" y="230.187" fill="#202124" font-size="11" textLength="60.951" font-family="'Roboto, Segoe UI, sans-serif'">summaries</text><text x="356.005" y="230.187" fill="#202124" font-size="11" font-family="'Roboto, Segoe UI, sans-serif'"> </text><text x="359.502" y="230.187" fill="#202124" font-size="11" font-family="'Roboto, Segoe UI, sans-serif'">&amp;</text><text x="368.079" y="230.187" fill="#202124" font-size="11" font-family="'Roboto, Segoe UI, sans-serif'"> </text><text x="371.576" y="230.187" fill="#202124" font-size="11" textLength="22.5" font-family="'Roboto, Segoe UI, sans-serif'">jobs</text><polygon points="231.757,257.586,221.757,261.586,231.757,265.586,227.757,261.586" fill="#5F6368" style="stroke:#5F6368;stroke-width:1;stroke-linejoin:miter;stroke-miterlimit:10;"/><line x1="225.757" y1="261.586" x2="408.392" y2="261.586" style="stroke:#5F6368;stroke-width:1;stroke-dasharray:2,2;"/><text x="251.959" y="256.992" fill="#202124" font-size="11" textLength="20.233" font-family="'Roboto, Segoe UI, sans-serif'">day</text><text x="272.192" y="256.992" fill="#202124" font-size="11" font-family="'Roboto, Segoe UI, sans-serif'"> </text><text x="275.688" y="256.992" fill="#202124" font-size="11" textLength="60.951" font-family="'Roboto, Segoe UI, sans-serif'">summaries</text><text x="336.64" y="256.992" fill="#202124" font-size="11" font-family="'Roboto, Segoe UI, sans-serif'"> </text><text x="340.136" y="256.992" fill="#202124" font-size="11" font-family="'Roboto, Segoe UI, sans-serif'">&amp;</text><text x="348.714" y="256.992" fill="#202124" font-size="11" font-family="'Roboto, Segoe UI, sans-serif'"> </text><text x="352.21" y="256.992" fill="#202124" font-size="11" textLength="25.98" font-family="'Roboto, Segoe UI, sans-serif'">rows</text><polygon points="69.812,284.391,59.812,288.391,69.812,292.391,65.812,288.391" fill="#5F6368" style="stroke:#5F6368;stroke-width:1;stroke-linejoin:miter;stroke-miterlimit:10;"/><line x1="63.812" y1="288.391" x2="219.757" y2="288.391" style="stroke:#5F6368;stroke-width:1;stroke-dasharray:2,2;"/><text x="96.064" y="283.796" fill="#202124" font-size="11" textLength="36.534" font-family="'Roboto, Segoe UI, sans-serif'">render</text><text x="132.598" y="283.796" fill="#202124" font-size="11" font-family="'Roboto, Segoe UI, sans-serif'"> </text><text x="136.094" y="283.796" fill="#202124" font-size="11" textLength="22.371" font-family="'Roboto, Segoe UI, sans-serif'">tree</text><text x="158.465" y="283.796" fill="#202124" font-size="11" font-family="'Roboto, Segoe UI, sans-serif'"> </text><text x="161.962" y="283.796" fill="#202124" font-size="11" textLength="21.543" font-family="'Roboto, Segoe UI, sans-serif'">grid</text><rect x="10" y="316.375" width="599.141" height="3" fill="#EEE" style="stroke:#EEE;stroke-width:1;"/><line x1="10" y1="316.375" x2="609.141" y2="316.375" style="stroke:#000;stroke-width:1;"/><line x1="10" y1="319.375" x2="609.141" y2="319.375" style="stroke:#000;stroke-width:1;"/><rect x="203.699" y="306.391" width="211.742" height="21.969" fill="#EEE" style="stroke:#000;stroke-width:2;"/><text x="209.699" y="321.529" fill="#000" font-size="12" textLength="193.564" font-weight="700" font-family="'Roboto, Segoe UI, sans-serif'">Live Updates (Dual-Channel)</text><path d="M42.812,342.359 L105.759,342.359 L105.759,348.328 L95.759,358.328 L42.812,358.328 L42.812,342.359" style="stroke:#000;stroke-width:1.5;" fill="#EEE"/><rect x="42.812" y="342.359" width="382.581" height="231.406" fill="none" style="stroke:#000;stroke-width:1.5;"/><text x="57.812" y="354.498" fill="#000" font-size="12" textLength="17.947" font-weight="700" font-family="'Roboto, Segoe UI, sans-serif'">alt</text><text x="120.759" y="354.57" fill="#000" font-size="11" textLength="143.36" font-weight="700" font-family="'Roboto, Segoe UI, sans-serif'">[Fast Path (same JVM)]</text><line x1="220.757" y1="387.133" x2="262.757" y2="387.133" style="stroke:#5F6368;stroke-width:1;"/><line x1="262.757" y1="387.133" x2="262.757" y2="400.133" style="stroke:#5F6368;stroke-width:1;"/><line x1="221.757" y1="400.133" x2="262.757" y2="400.133" style="stroke:#5F6368;stroke-width:1;"/><polygon points="231.757,396.133,221.757,400.133,231.757,404.133,227.757,400.133" fill="#5F6368" style="stroke:#5F6368;stroke-width:1;stroke-linejoin:miter;stroke-miterlimit:10;"/><text x="227.757" y="382.539" fill="#202124" font-size="11" textLength="62.869" font-family="'Roboto, Segoe UI, sans-serif'">UiEventBus</text><text x="290.626" y="382.539" fill="#202124" font-size="11" font-family="'Roboto, Segoe UI, sans-serif'"> </text><text x="294.123" y="382.539" fill="#202124" font-size="11" textLength="102.916" font-family="'Roboto, Segoe UI, sans-serif'">(JobFinishedEvent)</text><polygon points="397.392,422.938,407.392,426.938,397.392,430.938,401.392,426.938" fill="#5F6368" style="stroke:#5F6368;stroke-width:1;stroke-linejoin:miter;stroke-miterlimit:10;"/><line x1="220.757" y1="426.938" x2="403.392" y2="426.938" style="stroke:#5F6368;stroke-width:1;"/><text x="273.443" y="422.343" fill="#202124" font-size="11" textLength="31.034" font-family="'Roboto, Segoe UI, sans-serif'">count</text><text x="304.478" y="422.343" fill="#202124" font-size="11" font-family="'Roboto, Segoe UI, sans-serif'"> </text><text x="307.974" y="422.343" fill="#202124" font-size="11" textLength="22.736" font-family="'Roboto, Segoe UI, sans-serif'">new</text><text x="330.71" y="422.343" fill="#202124" font-size="11" font-family="'Roboto, Segoe UI, sans-serif'"> </text><text x="334.207" y="422.343" fill="#202124" font-size="11" textLength="22.5" font-family="'Roboto, Segoe UI, sans-serif'">jobs</text><polygon points="69.812,449.742,59.812,453.742,69.812,457.742,65.812,453.742" fill="#5F6368" style="stroke:#5F6368;stroke-width:1;stroke-linejoin:miter;stroke-miterlimit:10;"/><line x1="63.812" y1="453.742" x2="219.757" y2="453.742" style="stroke:#5F6368;stroke-width:1;stroke-dasharray:2,2;"/><text x="70.812" y="449.148" fill="#202124" font-size="11" textLength="38.758" font-family="'Roboto, Segoe UI, sans-serif'">update</text><text x="109.569" y="449.148" fill="#202124" font-size="11" font-family="'Roboto, Segoe UI, sans-serif'"> </text><text x="113.066" y="449.148" fill="#202124" font-size="11" textLength="57.739" font-family="'Roboto, Segoe UI, sans-serif'">new-count</text><text x="170.805" y="449.148" fill="#202124" font-size="11" font-family="'Roboto, Segoe UI, sans-serif'"> </text><text x="174.302" y="449.148" fill="#202124" font-size="11" textLength="34.456" font-family="'Roboto, Segoe UI, sans-serif'">badge</text><line x1="42.812" y1="462.742" x2="425.392" y2="462.742" style="stroke:#000;stroke-width:1;stroke-dasharray:2,2;"/><text x="47.812" y="474.953" fill="#000" font-size="11" textLength="328.931" font-weight="700" font-family="'Roboto, Segoe UI, sans-serif'">[Guaranteed Path (separate worker / dropped push)]</text><polygon points="397.392,508.156,407.392,512.156,397.392,516.156,401.392,512.156" fill="#5F6368" style="stroke:#5F6368;stroke-width:1;stroke-linejoin:miter;stroke-miterlimit:10;"/><line x1="220.757" y1="512.156" x2="403.392" y2="512.156" style="stroke:#5F6368;stroke-width:1;"/><text x="232.757" y="494.757" fill="#202124" font-size="11" textLength="19.825" font-family="'Roboto, Segoe UI, sans-serif'">poll</text><text x="252.582" y="494.757" fill="#202124" font-size="11" font-family="'Roboto, Segoe UI, sans-serif'"> </text><text x="256.079" y="494.757" fill="#202124" font-size="11" textLength="36.765" font-family="'Roboto, Segoe UI, sans-serif'">counts</text><text x="292.844" y="494.757" fill="#202124" font-size="11" font-family="'Roboto, Segoe UI, sans-serif'"> </text><text x="296.34" y="494.757" fill="#202124" font-size="11" textLength="37.727" font-family="'Roboto, Segoe UI, sans-serif'">(active</text><text x="334.067" y="494.757" fill="#202124" font-size="11" font-family="'Roboto, Segoe UI, sans-serif'"> </text><text x="337.563" y="494.757" fill="#202124" font-size="11" textLength="22.5" font-family="'Roboto, Segoe UI, sans-serif'">jobs</text><text x="360.063" y="494.757" fill="#202124" font-size="11" font-family="'Roboto, Segoe UI, sans-serif'"> </text><text x="363.56" y="494.757" fill="#202124" font-size="11" textLength="10.028" font-family="'Roboto, Segoe UI, sans-serif'">in</text><text x="373.587" y="494.757" fill="#202124" font-size="11" font-family="'Roboto, Segoe UI, sans-serif'"> </text><text x="377.084" y="494.757" fill="#202124" font-size="11" textLength="20.308" font-family="'Roboto, Segoe UI, sans-serif'">set,</text><text x="271.134" y="507.562" fill="#202124" font-size="11" textLength="41.938" font-family="'Roboto, Segoe UI, sans-serif'">interval</text><text x="313.071" y="507.562" fill="#202124" font-size="11" font-family="'Roboto, Segoe UI, sans-serif'"> </text><text x="316.568" y="507.562" fill="#202124" font-size="11" textLength="18.434" font-family="'Roboto, Segoe UI, sans-serif'">&lt;=</text><text x="335.001" y="507.562" fill="#202124" font-size="11" font-family="'Roboto, Segoe UI, sans-serif'"> </text><text x="338.498" y="507.562" fill="#202124" font-size="11" font-family="'Roboto, Segoe UI, sans-serif'">2</text><text x="345.497" y="507.562" fill="#202124" font-size="11" font-family="'Roboto, Segoe UI, sans-serif'"> </text><text x="348.993" y="507.562" fill="#202124" font-size="11" textLength="10.022" font-family="'Roboto, Segoe UI, sans-serif'">s)</text><polygon points="231.757,534.961,221.757,538.961,231.757,542.961,227.757,538.961" fill="#5F6368" style="stroke:#5F6368;stroke-width:1;stroke-linejoin:miter;stroke-miterlimit:10;"/><line x1="225.757" y1="538.961" x2="408.392" y2="538.961" style="stroke:#5F6368;stroke-width:1;stroke-dasharray:2,2;"/><text x="272.074" y="534.367" fill="#202124" font-size="11" textLength="45.74" font-family="'Roboto, Segoe UI, sans-serif'">updated</text><text x="317.814" y="534.367" fill="#202124" font-size="11" font-family="'Roboto, Segoe UI, sans-serif'"> </text><text x="321.311" y="534.367" fill="#202124" font-size="11" textLength="36.765" font-family="'Roboto, Segoe UI, sans-serif'">counts</text><polygon points="69.812,561.766,59.812,565.766,69.812,569.766,65.812,565.766" fill="#5F6368" style="stroke:#5F6368;stroke-width:1;stroke-linejoin:miter;stroke-miterlimit:10;"/><line x1="63.812" y1="565.766" x2="219.757" y2="565.766" style="stroke:#5F6368;stroke-width:1;stroke-dasharray:2,2;"/><text x="70.812" y="561.171" fill="#202124" font-size="11" textLength="38.758" font-family="'Roboto, Segoe UI, sans-serif'">update</text><text x="109.569" y="561.171" fill="#202124" font-size="11" font-family="'Roboto, Segoe UI, sans-serif'"> </text><text x="113.066" y="561.171" fill="#202124" font-size="11" textLength="57.739" font-family="'Roboto, Segoe UI, sans-serif'">new-count</text><text x="170.805" y="561.171" fill="#202124" font-size="11" font-family="'Roboto, Segoe UI, sans-serif'"> </text><text x="174.302" y="561.171" fill="#202124" font-size="11" textLength="34.456" font-family="'Roboto, Segoe UI, sans-serif'">badge</text><?plantuml-src dPDDRzD048Rl-ok62A54mYrmZE98JKsHgbIqYjeUWCFOEtKMDhlBVZWAlvvPswMabJXmiZNpplYPUSUlb6bqaWI1VYOo3HKX7hGoxObBEtt2MI6mYTR3vFF3Wse8hj1WItu26608ZH7Xq4VLA8ScmaIh63KLqTiOoHVAT9QbVTKzrMVE2OaHQmm4asiROkjfSxF-QXP1_QBv-tVBBzMO_xOupR5bNrkj_lcPxxOkzjR_6Fdk-rSXZZYXM8u8Sx2E370Hs8vyfsWlXapMLAivy4xy0IGU8AJT3hsY06zoGH3L2eg_EZtNUBiFVvgnxWXX3fwCP9JeYQ3rIWfHbh1M7S6juyLmYscLK1VdMpI6z0pAKg2ES84XmZN6BKm3xWWkxwvc0k29-f7dLdtioCHLuawNjhvGHeKjoJvuN97dR6pYRHhQ3xCzfL-IfvulQukXgaRPaY3DJdvAwDaM8ld8IEnMbW-cm2b8RvtZl4jX-vB3MQq76CRckyiBoKIW35zeVCjFjhb33OiIFa387PuPCV39iSj_ZMBOZjURyOVOyF6pV4qjnwUptm00?></g></svg>
